<svg xmlns="http://www.w3.org/2000/svg" width="23" height="22" viewBox="0 0 23 22">
    <path fill="#61ABB7" d="M22.967 8.354c-.08-.245-.29-.423-.544-.46l-7.13-1.039L12.104.377C11.991.146 11.756 0 11.5 0s-.49.146-.604.377L7.707 6.855l-7.13 1.04c-.254.036-.465.214-.544.459-.08.245-.013.513.17.693l5.16 5.042-1.218 7.121c-.034.196.02.398.149.55.128.152.316.24.515.24h13.382c.199 0 .387-.088.515-.24s.183-.354.15-.55l-1.219-7.12 5.16-5.043c.183-.18.25-.448.17-.693zM11.5 7.622c1.566 0 2.84 1.277 2.84 2.847s-1.275 2.846-2.84 2.846-2.839-1.277-2.839-2.846c0-1.57 1.274-2.847 2.839-2.847zM6.541 20.649c.33-2.449 2.428-4.343 4.959-4.343 2.53 0 4.629 1.894 4.959 4.343H6.54z"/>
</svg>
