<svg xmlns="http://www.w3.org/2000/svg" width="93" height="93" viewBox="0 0 93 93">
    <g fill="none" fill-rule="evenodd">
        <g fill="#DC7373" fill-rule="nonzero">
            <g>
                <path d="M91.5 78H90V28.5c0-.684-.166-1.337-.454-1.936C91.702 23.774 93 20.29 93 16.5 93 7.402 85.597 0 76.5 0c-5.148 0-9.75 2.373-12.779 6.078-1.606.284-2.908 1.417-3.445 2.922h-3.554c-.619-1.742-2.269-3-4.222-3-1.953 0-3.603 1.258-4.224 3h-3.554c-.619-1.742-2.269-3-4.222-3-1.953 0-3.603 1.258-4.224 3h-3.554c-.619-1.742-2.269-3-4.222-3-1.953 0-3.603 1.258-4.224 3H16.5c-.828 0-1.5.672-1.5 1.5V24H7.5C5.019 24 3 26.019 3 28.5V78H1.5c-.828 0-1.5.67-1.5 1.5v6C0 89.635 3.365 93 7.5 93h78c4.135 0 7.5-3.365 7.5-7.5v-6c0-.83-.672-1.5-1.5-1.5zm-15-75C83.943 3 90 9.057 90 16.5S83.943 30 76.5 30 63 23.943 63 16.5 69.057 3 76.5 3zM63.782 27H61.5c-.828 0-1.5.672-1.5 1.5v6c0 .828.672 1.5 1.5 1.5h6c.828 0 1.5-.672 1.5-1.5v-3.321c1.832.939 3.855 1.551 6 1.746V51H18V24h43.821c.549 1.071 1.2 2.08 1.96 3zM66 30v3h-3v-3h3zM18 54h57v3H18v-3zm-1.5 6h60c.828 0 1.5-.67 1.5-1.5V32.923c1.032-.093 2.032-.288 3-.564V72H12V33h3v25.5c0 .83.672 1.5 1.5 1.5zM51 10.5c0-.826.673-1.5 1.5-1.5s1.5.674 1.5 1.5v3c0 .826-.673 1.5-1.5 1.5s-1.5-.674-1.5-1.5v-3zm-12 0c0-.826.673-1.5 1.5-1.5s1.5.674 1.5 1.5v3c0 .826-.673 1.5-1.5 1.5s-1.5-.674-1.5-1.5v-3zm-12 0c0-.826.674-1.5 1.5-1.5s1.5.674 1.5 1.5v3c0 .826-.674 1.5-1.5 1.5s-1.5-.674-1.5-1.5v-3zM24 12v1.5c0 2.481 2.019 4.5 4.5 4.5s4.5-2.019 4.5-4.5V12h3v1.5c0 2.481 2.019 4.5 4.5 4.5s4.5-2.019 4.5-4.5V12h3v1.5c0 2.481 2.019 4.5 4.5 4.5s4.5-2.019 4.5-4.5V12h3v1.5c0 .347.053.687.13 1.021-.078.65-.13 1.308-.13 1.979 0 1.561.233 3.067.639 4.5H18v-9h6zM6 28.5c0-.826.673-1.5 1.5-1.5H15v3h-4.5c-.828 0-1.5.672-1.5 1.5v42c0 .83.672 1.5 1.5 1.5h72c.828 0 1.5-.67 1.5-1.5V31.179c1.071-.549 2.08-1.2 3-1.96V78H6V28.5zM36 81h21v1.5c0 .828-.673 1.5-1.5 1.5h-18c-.827 0-1.5-.672-1.5-1.5V81zm54 4.5c0 2.481-2.019 4.5-4.5 4.5h-78C5.019 90 3 87.981 3 85.5V81h30v1.5c0 2.481 2.019 4.5 4.5 4.5h18c2.481 0 4.5-2.019 4.5-4.5V81h30v4.5z" transform="translate(-384 -514) translate(384 514)"/>
                <path d="M25.5 36h6c.828 0 1.5-.672 1.5-1.5v-6c0-.828-.672-1.5-1.5-1.5h-6c-.828 0-1.5.672-1.5 1.5v6c0 .828.672 1.5 1.5 1.5zm1.5-6h3v3h-3v-3zM37.5 36h6c.828 0 1.5-.672 1.5-1.5v-6c0-.828-.672-1.5-1.5-1.5h-6c-.828 0-1.5.672-1.5 1.5v6c0 .828.672 1.5 1.5 1.5zm1.5-6h3v3h-3v-3zM49.5 36h6c.828 0 1.5-.672 1.5-1.5v-6c0-.828-.672-1.5-1.5-1.5h-6c-.828 0-1.5.672-1.5 1.5v6c0 .828.672 1.5 1.5 1.5zm1.5-6h3v3h-3v-3zM25.5 48h6c.828 0 1.5-.672 1.5-1.5v-6c0-.828-.672-1.5-1.5-1.5h-6c-.828 0-1.5.672-1.5 1.5v6c0 .828.672 1.5 1.5 1.5zm1.5-6h3v3h-3v-3zM37.5 48h6c.828 0 1.5-.672 1.5-1.5v-6c0-.828-.672-1.5-1.5-1.5h-6c-.828 0-1.5.672-1.5 1.5v6c0 .828.672 1.5 1.5 1.5zm1.5-6h3v3h-3v-3zM49.5 48h6c.828 0 1.5-.672 1.5-1.5v-6c0-.828-.672-1.5-1.5-1.5h-6c-.828 0-1.5.672-1.5 1.5v6c0 .828.672 1.5 1.5 1.5zm1.5-6h3v3h-3v-3zM61.5 48h6c.828 0 1.5-.672 1.5-1.5v-6c0-.828-.672-1.5-1.5-1.5h-6c-.828 0-1.5.672-1.5 1.5v6c0 .828.672 1.5 1.5 1.5zm1.5-6h3v3h-3v-3zM7 83L10 83 10 86 7 86zM11 83L14 83 14 86 11 86z" transform="translate(-384 -514) translate(384 514)"/>
                <g>
                    <path d="M10.945 7.74c-.155-.137-.155-.343 0-.48l5.822-5.137c.155-.137.233-.342.233-.48 0-.136-.078-.342-.233-.479L15.68.205C15.525.068 15.292 0 15.137 0c-.233 0-.388.068-.543.205L8.772 5.342c-.156.137-.388.137-.544 0L2.406.205C2.251.068 2.018 0 1.863 0c-.155 0-.388.068-.543.205l-1.087.96C.078 1.3 0 1.506 0 1.643c0 .137.078.342.233.48L6.055 7.26c.155.137.155.343 0 .48L.233 12.877c-.155.137-.233.342-.233.48 0 .136.078.342.233.479l1.087.959c.155.137.388.205.543.205.155 0 .388-.068.543-.205l5.822-5.137c.156-.137.388-.137.544 0l5.822 5.137c.155.137.388.205.543.205.155 0 .388-.068.543-.205l1.087-.96c.155-.136.233-.342.233-.479 0-.137-.078-.342-.233-.48L10.945 7.74z" transform="translate(-384 -514) translate(384 514) translate(69 9)"/>
                </g>
            </g>
        </g>
    </g>
</svg>
