<?xml version="1.0" encoding="utf-8"?>
<!-- Generator: Adobe Illustrator 22.0.0, SVG Export Plug-In . SVG Version: 6.00 Build 0)  -->
<svg version="1.1" id="Capa_1" xmlns="http://www.w3.org/2000/svg" xmlns:xlink="http://www.w3.org/1999/xlink" x="0px" y="0px"
	 viewBox="0 0 75 60" style="enable-background:new 0 0 75 60;" xml:space="preserve">
<style type="text/css">
	.st0{fill:#C8C8C8;}
</style>
<g>
	<path class="st0" d="M62.5,48.9c3.4,0,6.2-2.8,6.2-6.2l0-31.3c0-3.4-2.8-6.2-6.2-6.2h-50c-3.4,0-6.2,2.8-6.2,6.2v31.3
		c0,3.4,2.8,6.2,6.2,6.2H0v6.2h75v-6.3H62.5z M12.5,11.4h50v31.3h-50V11.4z"/>
	<path class="st0" d="M37.2,19.3c-4.6,0-8.4,3.7-8.4,8.4s3.7,8.4,8.4,8.4s8.4-3.7,8.4-8.4C45.5,23.1,41.8,19.3,37.2,19.3z M38,33.6
		h-1.7v-1.7H38V33.6z M39.7,27.1L39,27.9c-0.7,0.6-1,1.5-1,2.4h-1.7v-0.4c0-0.9,0.4-1.7,1-2.4l1-1.1c0.3-0.3,0.5-0.7,0.5-1.2
		c0-0.9-0.7-1.7-1.7-1.7c-0.9,0-1.7,0.7-1.7,1.7h-1.7c0-1.8,1.5-3.3,3.3-3.3s3.3,1.5,3.3,3.3C40.5,25.9,40.2,26.6,39.7,27.1z"/>
</g>
</svg>
