<svg xmlns="http://www.w3.org/2000/svg" width="75" height="75" viewBox="0 0 75 75">
    <g fill="none" fill-rule="evenodd">
        <g fill="#61B78A" fill-rule="nonzero">
            <g>
                <path d="M73.173 9.84c-1.106-1.118-2.9-1.12-4.006-.006L35.18 44.021 22.917 30.589c-1.06-1.16-2.85-1.235-4.003-.167-1.151 1.069-1.225 2.877-.165 4.038l14.26 15.618c.522.573 1.253.905 2.023.921l.06.001c.75 0 1.47-.3 2-.833L73.168 13.88c1.109-1.114 1.11-2.924.006-4.04z" transform="translate(-682 -249) translate(682 249)"/>
                <path d="M72.173 34.673c-1.56 0-2.826 1.266-2.826 2.827 0 17.561-14.286 31.847-31.847 31.847-17.56 0-31.847-14.286-31.847-31.847C5.653 19.94 19.94 5.653 37.5 5.653c1.561 0 2.827-1.265 2.827-2.826C40.327 1.265 39.06 0 37.5 0 16.822 0 0 16.822 0 37.5 0 58.177 16.822 75 37.5 75 58.177 75 75 58.177 75 37.5c0-1.561-1.265-2.827-2.827-2.827z" transform="translate(-682 -249) translate(682 249)"/>
            </g>
        </g>
    </g>
</svg>
