<svg xmlns="http://www.w3.org/2000/svg" width="88" height="78" viewBox="0 0 88 78">
    <g fill="#61ABB7">
        <path d="M41 72c-.837 0-1.603-.543-1.885-1.329-.279-.776-.038-1.665.59-2.2.654-.555 1.622-.628 2.351-.174.7.434 1.069 1.285.906 2.091C42.776 71.312 41.945 72 41 72z"/>
        <path d="M83.553 0H33.437c-2.452 0-4.447 1.989-4.447 4.433v19.12H4.447C1.995 23.553 0 25.542 0 27.986v39.675c0 2.445 1.995 4.433 4.447 4.433h11.74l1.382 4.677c.158.536.57.962 1.1 1.14.18.06.364.089.548.089.363 0 .721-.114 1.02-.335l7.58-5.574 4.788-.026c.95-.006 1.715-.777 1.71-1.723-.005-.943-.774-1.704-1.719-1.704h-.01l-5.347.03c-.365.001-.719.119-1.011.334l-6.055 4.453-1.052-3.558c-.215-.73-.886-1.23-1.648-1.23H4.447c-.557 0-1.01-.451-1.01-1.006V27.986c0-.555.453-1.006 1.01-1.006h50.116c.557 0 1.01.451 1.01 1.006v39.675c0 .555-.453 1.006-1.002 1.006l-6.428-.029h-.008c-.945 0-1.714.762-1.718 1.706-.004.946.762 1.717 1.71 1.721l6.436.03c2.452 0 4.447-1.99 4.447-4.434v-19.12h1.177l7.575 5.571c.3.22.658.335 1.02.335.184 0 .37-.03.548-.09.532-.177.943-.603 1.101-1.14l1.382-4.676h11.74c2.452 0 4.447-1.988 4.447-4.433V4.433C88 1.99 86.005 0 83.553 0zm1.01 44.108c0 .555-.454 1.006-1.01 1.006H70.527c-.762 0-1.433.5-1.648 1.23l-1.052 3.558-6.055-4.453c-.295-.217-.653-.335-1.02-.335H59.01V34.337h17.31c.949 0 1.719-.767 1.719-1.713 0-.947-.77-1.714-1.72-1.714H59.01v-2.924c0-.346-.04-.683-.115-1.006H76.32c.949 0 1.719-.767 1.719-1.713 0-.947-.77-1.714-1.72-1.714H32.428V4.433c0-.555.453-1.006 1.01-1.006h50.116c.556 0 1.01.451 1.01 1.006v39.675z"/>
        <path d="M76.285 9h-35.57C39.768 9 39 9.895 39 11s.768 2 1.715 2h35.57c.947 0 1.715-.895 1.715-2s-.768-2-1.715-2zM76.285 16h-35.57c-.947 0-1.715.895-1.715 2s.768 2 1.715 2h35.57c.947 0 1.715-.895 1.715-2s-.768-2-1.715-2zM27.648 55c-.623 0-1.246-.161-1.815-.485C24.685 53.864 24 52.693 24 51.383v-7.766c0-1.31.685-2.48 1.833-3.132 1.148-.652 2.515-.646 3.657.015l6.704 3.883C37.325 45.038 38 46.203 38 47.5s-.675 2.462-1.806 3.117L29.491 54.5c-.576.333-1.21.5-1.843.5zm.002-11.516c-.019 0-.041.005-.067.02-.066.038-.066.085-.066.113v7.766c0 .028 0 .075.066.113.066.037.107.013.132 0l6.703-3.884c.025-.014.065-.038.065-.112 0-.075-.04-.098-.065-.112l-6.704-3.883c-.014-.009-.035-.02-.064-.02z"/>
        <path d="M28.5 64C19.402 64 12 56.598 12 47.5 12 38.402 19.402 31 28.5 31 37.598 31 45 38.402 45 47.5 45 56.598 37.598 64 28.5 64zm0-29.56c-7.201 0-13.06 5.859-13.06 13.06 0 7.201 5.859 13.06 13.06 13.06 7.201 0 13.06-5.859 13.06-13.06 0-7.201-5.859-13.06-13.06-13.06z"/>
    </g>
</svg>
