<svg xmlns="http://www.w3.org/2000/svg" width="71" height="75" viewBox="0 0 71 75">
    <g fill="#61ABB7">
        <path d="M53.82 0H1.18C.528 0 0 .526 0 1.175v56.65C0 58.474.528 59 1.18 59h52.64c.652 0 1.18-.526 1.18-1.175V1.175C55 .526 54.472 0 53.82 0zm-1.18 56.65H2.36V2.35h50.28v54.3z"/>
        <path d="M14 20c3.308 0 6-2.692 6-6s-2.692-6-6-6-6 2.692-6 6 2.692 6 6 6zm0-9.714c2.048 0 3.714 1.666 3.714 3.714S16.048 17.714 14 17.714 10.286 16.048 10.286 14s1.666-3.714 3.714-3.714zM25.194 14h21.612c.66 0 1.194-.448 1.194-1s-.535-1-1.194-1H25.194c-.66 0-1.194.448-1.194 1s.535 1 1.194 1zM46.772 28h-4.544C41.55 28 41 28.448 41 29s.55 1 1.228 1h4.544C47.45 30 48 29.552 48 29s-.55-1-1.228-1zM13.333 36c3.08 0 5.65-2.094 6.216-4.857h17.245C37.46 31.143 38 30.63 38 30s-.54-1.143-1.206-1.143H19.549C18.984 26.094 16.412 24 13.333 24 9.84 24 7 26.692 7 30s2.84 6 6.333 6zm0-9.714c2.161 0 3.92 1.666 3.92 3.714s-1.759 3.714-3.92 3.714c-2.162 0-3.92-1.666-3.92-3.714s1.758-3.714 3.92-3.714zM15.167 51c3 0 5.504-2.094 6.054-4.857h25.604c.65 0 1.175-.512 1.175-1.143s-.526-1.143-1.175-1.143H21.221C20.67 41.094 18.166 39 15.167 39 11.767 39 9 41.692 9 45s2.767 6 6.167 6zm0-9.714c2.105 0 3.818 1.666 3.818 3.714s-1.713 3.714-3.818 3.714S11.35 47.048 11.35 45s1.713-3.714 3.818-3.714z"/>
        <path d="M33 0L0 18.562 10.546 22.468 26.813 7.219 14.44 23.911 14.45 23.914 14.438 23.911 14.438 33 20.352 26.1 27.844 28.875z" transform="translate(38 42)"/>
    </g>
</svg>
