<svg xmlns="http://www.w3.org/2000/svg" width="43" height="51" viewBox="0 0 43 51">
    <g fill="none" fill-rule="evenodd">
        <path fill="#E3E3E3" fill-rule="nonzero" d="M21.5 0C9.637 0 0 9.716 0 21.675 0 33.635 9.637 43.35 21.5 43.35h1.265V51C35.058 45.033 43 33.15 43 21.675 43 9.715 33.363 0 21.5 0zm2.53 36.975h-5.06v-5.1h5.06v5.1zm0-8.925h-5.06c0-8.288 7.589-7.65 7.589-12.75 0-2.805-2.277-5.1-5.059-5.1s-5.059 2.295-5.059 5.1h-5.059c0-5.636 4.528-10.2 10.118-10.2 5.59 0 10.118 4.565 10.118 10.2 0 6.375-7.589 7.012-7.589 12.75z"/>
        <path d="M-8-5h61v61H-8z"/>
    </g>
</svg>
