<svg xmlns="http://www.w3.org/2000/svg" width="90" height="90" viewBox="0 0 90 90">
    <g fill-rule="evenodd">
        <g fill-rule="nonzero">
            <g>
                <path d="M88.548 75.484h-1.451V27.58c0-.662-.161-1.294-.44-1.874C88.744 23.008 90 19.636 90 15.967 90 7.165 82.836 0 74.032 0c-4.982 0-9.435 2.296-12.366 5.882-1.555.274-2.815 1.372-3.334 2.828h-3.44c-.599-1.686-2.196-2.904-4.086-2.904-1.89 0-3.486 1.218-4.087 2.904h-3.44c-.599-1.686-2.195-2.904-4.085-2.904-1.89 0-3.487 1.218-4.088 2.904h-3.44c-.599-1.686-2.195-2.904-4.085-2.904-1.89 0-3.487 1.218-4.088 2.904h-7.525c-.802 0-1.452.65-1.452 1.451v13.065H7.258c-2.4 0-4.355 1.954-4.355 4.355v47.903H1.452C.65 75.484 0 76.133 0 76.935v5.807C0 86.744 3.256 90 7.258 90h75.484C86.744 90 90 86.744 90 82.742v-5.807c0-.802-.65-1.451-1.452-1.451zM74.032 2.904c7.203 0 13.065 5.86 13.065 13.064 0 7.203-5.862 13.064-13.065 13.064-7.203 0-13.064-5.861-13.064-13.064S66.829 2.903 74.032 2.903zM61.724 26.128h-2.208c-.801 0-1.451.65-1.451 1.452v5.806c0 .801.65 1.452 1.451 1.452h5.807c.8 0 1.451-.65 1.451-1.452v-3.214c1.773.909 3.73 1.501 5.807 1.69v17.492H17.419v-26.13h42.408c.531 1.037 1.161 2.014 1.897 2.904zm2.147 2.903v2.903h-2.903v-2.903h2.903zM17.419 52.258h55.162v2.903H17.419v-2.903zm-1.451 5.807h58.064c.802 0 1.452-.65 1.452-1.452V31.86c.999-.09 1.967-.278 2.903-.545v38.361H11.613V31.935h2.903v24.678c0 .803.65 1.452 1.452 1.452zM49.355 10.16c0-.8.652-1.451 1.451-1.451.8 0 1.452.651 1.452 1.451v2.904c0 .8-.652 1.451-1.452 1.451-.8 0-1.451-.652-1.451-1.451V10.16zm-11.613 0c0-.8.652-1.451 1.452-1.451.8 0 1.451.651 1.451 1.451v2.904c0 .8-.652 1.451-1.451 1.451-.8 0-1.452-.652-1.452-1.451V10.16zm-11.613 0c0-.8.652-1.451 1.452-1.451.8 0 1.451.651 1.451 1.451v2.904c0 .8-.652 1.451-1.451 1.451-.8 0-1.452-.652-1.452-1.451V10.16zm-2.903 1.452v1.452c0 2.4 1.954 4.354 4.355 4.354 2.4 0 4.354-1.954 4.354-4.354v-1.452h2.904v1.452c0 2.4 1.954 4.354 4.355 4.354 2.4 0 4.354-1.954 4.354-4.354v-1.452h2.904v1.452c0 2.4 1.953 4.354 4.354 4.354s4.355-1.954 4.355-4.354v-1.452h2.904v1.452c0 .335.05.664.126.988-.076.629-.126 1.266-.126 1.915 0 1.51.225 2.968.618 4.355H17.419v-8.71h5.807zM5.806 27.58c0-.8.652-1.452 1.452-1.452h7.258v2.903h-4.355c-.801 0-1.451.65-1.451 1.452v40.645c0 .803.65 1.452 1.451 1.452H79.84c.801 0 1.451-.65 1.451-1.452V30.173c1.037-.531 2.014-1.161 2.904-1.897v47.208H5.806V27.58zM34.84 78.387H55.16v1.452c0 .801-.651 1.451-1.451 1.451H36.29c-.8 0-1.451-.65-1.451-1.451v-1.452zm52.258 4.355c0 2.4-1.954 4.355-4.355 4.355H7.258c-2.4 0-4.355-1.954-4.355-4.355v-4.355h29.032v1.452c0 2.4 1.954 4.355 4.355 4.355h17.42c2.4 0 4.355-1.954 4.355-4.355v-1.452h29.032v4.355z" transform="translate(-424 -447) translate(424 447)"/>
                <path d="M70.521 21c.381 0 .763-.135 1.053-.404L82 10.95 79.894 9l-9.373 8.673-3.415-3.16L65 16.462l4.468 4.134c.29.269.672.404 1.053.404zM24.5 35h6c.828 0 1.5-.672 1.5-1.5v-6c0-.828-.672-1.5-1.5-1.5h-6c-.828 0-1.5.672-1.5 1.5v6c0 .828.672 1.5 1.5 1.5zm1.5-6h3v3h-3v-3zM36.5 35h6c.828 0 1.5-.672 1.5-1.5v-6c0-.828-.672-1.5-1.5-1.5h-6c-.828 0-1.5.672-1.5 1.5v6c0 .828.672 1.5 1.5 1.5zm1.5-6h3v3h-3v-3zM47.5 35h6c.828 0 1.5-.672 1.5-1.5v-6c0-.828-.672-1.5-1.5-1.5h-6c-.828 0-1.5.672-1.5 1.5v6c0 .828.672 1.5 1.5 1.5zm1.5-6h3v3h-3v-3zM24.5 47h6c.828 0 1.5-.672 1.5-1.5v-6c0-.828-.672-1.5-1.5-1.5h-6c-.828 0-1.5.672-1.5 1.5v6c0 .828.672 1.5 1.5 1.5zm1.5-6h3v3h-3v-3zM36.5 47h6c.828 0 1.5-.672 1.5-1.5v-6c0-.828-.672-1.5-1.5-1.5h-6c-.828 0-1.5.672-1.5 1.5v6c0 .828.672 1.5 1.5 1.5zm1.5-6h3v3h-3v-3zM47.5 47h6c.828 0 1.5-.672 1.5-1.5v-6c0-.828-.672-1.5-1.5-1.5h-6c-.828 0-1.5.672-1.5 1.5v6c0 .828.672 1.5 1.5 1.5zm1.5-6h3v3h-3v-3zM59.5 47h6c.828 0 1.5-.672 1.5-1.5v-6c0-.828-.672-1.5-1.5-1.5h-6c-.828 0-1.5.672-1.5 1.5v6c0 .828.672 1.5 1.5 1.5zm1.5-6h3v3h-3v-3zM6 81L9 81 9 84 6 84zM11 81L14 81 14 84 11 84z" transform="translate(-424 -447) translate(424 447)"/>
            </g>
        </g>
    </g>
</svg>
