<svg xmlns="http://www.w3.org/2000/svg" width="16" height="15" viewBox="0 0 16 15">
    <path d="M11.877 1.945H8.642c-.042 0-.08-.017-.109-.047L7.36.64C6.98.233 6.441 0 5.877 0H2.008C.9.001.001.881 0 1.967v11.066C.001 14.119.9 14.999 2.008 15h11.984c1.108-.001 2.007-.881 2.008-1.967V5.945c-.001-1.086-.9-1.966-2.008-1.968h-.106v-.065c-.002-1.086-.9-1.966-2.009-1.967zM2.19 14.443h-.182c-.794 0-1.439-.632-1.44-1.41V1.967c.001-.778.646-1.41 1.44-1.41h3.869c.404 0 .79.167 1.062.459l1.174 1.258c.136.145.328.228.528.228h3.236c.795 0 1.439.632 1.44 1.41v.065H5.638C4.53 3.98 3.631 4.86 3.63 5.945v7.088c-.001.778-.645 1.41-1.44 1.41zm11.802-9.909c.794.001 1.439.632 1.44 1.41v7.089c-.001.778-.646 1.41-1.44 1.41H3.589c.39-.37.61-.879.61-1.41V5.945c0-.779.644-1.41 1.44-1.41h8.353z"/>
</svg>
