<svg xmlns="http://www.w3.org/2000/svg" width="87" height="69" viewBox="0 0 87 69">
    <g fill="none" fill-rule="evenodd">
        <g fill="#154481" fill-rule="nonzero">
            <g>
                <path d="M70.046 16.843H38.989l-6.177-7.457c-.208-.253-.52-.396-.844-.386H6.912C3.086 9.029 0 12.186 0 16.072v45.865C.005 65.836 3.115 68.995 6.954 69h63.092c3.839-.005 6.95-3.164 6.954-7.063v-38.03c-.005-3.9-3.115-7.059-6.954-7.064z" transform="translate(-755 -386) translate(755 386)"/>
                <path d="M79.992 7.852h-31.5L42.228.387c-.21-.254-.526-.397-.856-.387H15.974C12.454.006 9.478 2.614 9 6.11h23.165c1.214-.003 2.368.535 3.149 1.468l5.348 6.375h30.08c5.562.01 10.07 4.53 10.08 10.11V60c3.527-.441 6.175-3.446 6.178-7.01V14.914c-.01-3.884-3.136-7.034-7.008-7.063z" transform="translate(-755 -386) translate(755 386)"/>
            </g>
        </g>
    </g>
</svg>
