<svg xmlns="http://www.w3.org/2000/svg" width="39" height="37" viewBox="0 0 39 37">
    <path fill="#7D2180" d="M38.944 14.05c-.134-.411-.492-.711-.922-.773l-12.09-1.748L20.524.633C20.332.246 19.935 0 19.5 0c-.435 0-.832.246-1.025.633L13.07 11.53.979 13.277c-.431.062-.789.362-.923.773-.134.411-.022.863.29 1.165l8.748 8.481-2.066 11.976c-.057.33.036.668.253.924s.537.404.873.404h22.692c.336 0 .656-.148.873-.404.217-.256.31-.594.253-.924l-2.066-11.976 8.749-8.481c.311-.302.423-.754.29-1.165zM19.5 12.819c2.655 0 4.814 2.147 4.814 4.787s-2.16 4.788-4.814 4.788-4.814-2.148-4.814-4.788 2.16-4.787 4.814-4.787zm-8.408 21.908c.56-4.118 4.116-7.303 8.408-7.303 4.291 0 7.848 3.185 8.408 7.303H11.092z"/>
</svg>
