<svg xmlns="http://www.w3.org/2000/svg" xmlns:xlink="http://www.w3.org/1999/xlink" width="27" height="27" viewBox="0 0 27 27">
    <defs>
        <rect id="b" width="481" height="193" rx="4"/>
        <filter id="a" width="106%" height="115%" x="-3%" y="-6.5%" filterUnits="objectBoundingBox">
            <feMorphology in="SourceAlpha" operator="dilate" radius="2.5" result="shadowSpreadOuter1"/>
            <feOffset dy="2" in="shadowSpreadOuter1" result="shadowOffsetOuter1"/>
            <feGaussianBlur in="shadowOffsetOuter1" result="shadowBlurOuter1" stdDeviation="2"/>
            <feColorMatrix in="shadowBlurOuter1" values="0 0 0 0 0 0 0 0 0 0 0 0 0 0 0 0 0 0 0.104895105 0"/>
        </filter>
    </defs>
    <g fill="none" fill-rule="evenodd">
        <path fill="#F2F4F7" d="M-61-385h1326V646H-61z"/>
        <g transform="translate(-22 -60)">
            <use fill="#000" filter="url(#a)" xlink:href="#b"/>
            <use fill="#FFF" xlink:href="#b"/>
        </g>
        <g fill="#61ABB7" fill-rule="nonzero">
            <path d="M13.5 0C12.151 0 11 1.121 11 2.5S12.151 5 13.5 5 16 3.879 16 2.5 14.849 0 13.5 0zM7.5 16A2.503 2.503 0 0 0 5 18.5C5 19.879 6.121 21 7.5 21s2.5-1.121 2.5-2.5S8.879 16 7.5 16zM19.5 16a2.503 2.503 0 0 0-2.5 2.5c0 1.379 1.121 2.5 2.5 2.5s2.5-1.121 2.5-2.5-1.121-2.5-2.5-2.5z"/>
            <path d="M26.967 19.268l-1.086-6.308A2.359 2.359 0 0 0 23.537 11H3.463a2.359 2.359 0 0 0-2.344 1.96L.033 19.268a2.32 2.32 0 0 0 .53 1.903c.3.348.723.586 1.155.716a6.317 6.317 0 0 1 1.91-1.976 3.821 3.821 0 0 1-.477-1.821c0-2.156 1.776-3.91 3.96-3.91 2.183 0 3.96 1.754 3.96 3.91 0 .661-.183 1.275-.477 1.821A6.31 6.31 0 0 1 12.566 22h1.868a6.311 6.311 0 0 1 1.972-2.089 3.822 3.822 0 0 1-.477-1.821c0-2.156 1.777-3.91 3.96-3.91 2.184 0 3.96 1.754 3.96 3.91 0 .661-.182 1.275-.477 1.821a6.316 6.316 0 0 1 1.91 1.976c.432-.13.856-.368 1.155-.716a2.32 2.32 0 0 0 .53-1.903z"/>
            <path d="M24.8 23.88s-.017 0 0-.017A4.896 4.896 0 0 0 22.583 21c-.716.57-1.6.92-2.583.92a4.123 4.123 0 0 1-2.583-.92 4.931 4.931 0 0 0-2.217 2.88c-.133.435-.2.96-.2 1.446v.837c0 .469.367.837.833.837h8.334a.827.827 0 0 0 .833-.837v-.837c0-.486-.067-1.01-.2-1.446zM15.612 5A4.377 4.377 0 0 1 13 5.869c-.97 0-1.907-.334-2.612-.869C8.963 5.825 8 7.302 8 9h10c0-1.698-.963-3.175-2.388-4zM11.8 23.88s-.017 0 0-.017A4.896 4.896 0 0 0 9.583 21c-.716.57-1.6.92-2.583.92A4.123 4.123 0 0 1 4.417 21 4.931 4.931 0 0 0 2.2 23.88c-.133.435-.2.96-.2 1.446v.837c0 .469.367.837.833.837h8.334a.827.827 0 0 0 .833-.837v-.837c0-.486-.067-1.01-.2-1.446z"/>
        </g>
    </g>
</svg>
