<svg xmlns="http://www.w3.org/2000/svg" xmlns:xlink="http://www.w3.org/1999/xlink" width="27" height="27" viewBox="0 0 27 27">
    <defs>
        <rect id="b" width="481" height="193" rx="4"/>
        <filter id="a" width="106%" height="115%" x="-3%" y="-6.5%" filterUnits="objectBoundingBox">
            <feMorphology in="SourceAlpha" operator="dilate" radius="2.5" result="shadowSpreadOuter1"/>
            <feOffset dy="2" in="shadowSpreadOuter1" result="shadowOffsetOuter1"/>
            <feGaussianBlur in="shadowOffsetOuter1" result="shadowBlurOuter1" stdDeviation="2"/>
            <feColorMatrix in="shadowBlurOuter1" values="0 0 0 0 0 0 0 0 0 0 0 0 0 0 0 0 0 0 0.104895105 0"/>
        </filter>
    </defs>
    <g fill="none" fill-rule="evenodd">
        <path fill="#F2F4F7" d="M-61-424h1326V607H-61z"/>
        <g transform="translate(-22 -99)">
            <use fill="#000" filter="url(#a)" xlink:href="#b"/>
            <use fill="#FFF" xlink:href="#b"/>
        </g>
        <g fill="#7F94B6" fill-rule="nonzero">
            <path d="M13 0c-1.627 0-3 1.345-3 3s1.373 3 3 3 3-1.345 3-3-1.373-3-3-3zM5 15c-1.655 0-3 1.345-3 3s1.345 3 3 3 3-1.345 3-3-1.345-3-3-3zM22 15c-1.655 0-3 1.345-3 3s1.345 3 3 3 3-1.345 3-3-1.345-3-3-3zM9.13 21a4.827 4.827 0 0 1-3.63 1.62A4.827 4.827 0 0 1 1.87 21C.733 21.937 0 23.29 0 24.81v1.46c0 .403.351.73.786.73h9.428c.435 0 .786-.327.786-.73v-1.46c0-1.52-.733-2.873-1.87-3.81zM17.147 6c-.857 1.125-2.193 1.859-3.647 1.859-1.454 0-2.79-.734-3.647-1.859A6.029 6.029 0 0 0 8 10.374v1.788c0 .463.348.838.778.838h9.444c.43 0 .778-.375.778-.838v-1.788A6.029 6.029 0 0 0 17.147 6zM25.13 21a4.827 4.827 0 0 1-3.63 1.62A4.827 4.827 0 0 1 17.87 21c-1.137.937-1.87 2.29-1.87 3.81v1.46c0 .403.351.73.786.73h9.428c.435 0 .786-.327.786-.73v-1.46c0-1.52-.733-2.873-1.87-3.81zM14.276 16.09V14h-1.565v2.09L10 18.834c.446.408.58.52 1.084 1.166l2.41-2.433 2.4 2.424A7.176 7.176 0 0 1 17 18.848l-2.724-2.758z"/>
        </g>
    </g>
</svg>
