<?xml version="1.0" encoding="iso-8859-1"?>
<!-- Generator: Adobe Illustrator 19.0.0, SVG Export Plug-In . SVG Version: 6.00 Build 0)  -->
<svg version="1.1" id="Capa_1" xmlns="http://www.w3.org/2000/svg" xmlns:xlink="http://www.w3.org/1999/xlink" x="0px" y="0px"
	 viewBox="0 0 423.253 423.253" style="enable-background:new 0 0 423.253 423.253;" xml:space="preserve">
<g>
	<g>
		<path d="M366.933,266.24H54.613c-3.773,0-6.827,3.057-6.827,6.827v3.413c0,20.704,16.847,37.547,37.547,37.547h250.88
			c20.7,0,37.547-16.843,37.547-37.547v-3.413C373.76,269.297,370.707,266.24,366.933,266.24z M336.213,300.373H85.333
			c-12.013,0-21.985-8.917-23.653-20.48h298.185C358.2,291.456,348.227,300.373,336.213,300.373z" fill="#61ABB7"/>
	</g>
</g>
<g>
	<g>
		<path d="M341.333,102.4H81.92c-3.773,0-6.827,3.057-6.827,6.827v163.84c0,3.77,3.053,6.827,6.827,6.827h259.413
			c3.773,0,6.827-3.057,6.827-6.827v-163.84C348.16,105.457,345.107,102.4,341.333,102.4z M334.507,266.24H88.747V116.053h245.76
			V266.24z" fill="#61ABB7"/>
	</g>
</g>
<g>
	<g>
		<path d="M211.627,0C94.933,0,0,94.937,0,211.627s94.933,211.627,211.627,211.627s211.627-94.937,211.627-211.627
			S328.32,0,211.627,0z M211.627,409.6c-109.16,0-197.973-88.81-197.973-197.973S102.467,13.653,211.627,13.653
			S409.6,102.463,409.6,211.627S320.787,409.6,211.627,409.6z" fill="#9C27B0"/>
	</g>
</g>
<g>
	<g>
		<path d="M356.4,60.027c-2.666-2.666-6.987-2.666-9.653,0l-286.72,286.72c-2.666,2.666-2.666,6.987,0,9.653
			c1.333,1.333,3.081,2,4.826,2c1.746,0,3.494-0.667,4.826-2L356.4,69.68C359.066,67.014,359.066,62.693,356.4,60.027z" fill="#9C27B0"/>
	</g>
</g>
<g>
</g>
<g>
</g>
<g>
</g>
<g>
</g>
<g>
</g>
<g>
</g>
<g>
</g>
<g>
</g>
<g>
</g>
<g>
</g>
<g>
</g>
<g>
</g>
<g>
</g>
<g>
</g>
<g>
</g>
</svg>
