<svg xmlns="http://www.w3.org/2000/svg" width="62" height="53" viewBox="0 0 62 53">
    <g fill="none" fill-rule="evenodd">
        <g fill="#61ABB7" fill-rule="nonzero">
            <g transform="translate(-231 -738) translate(231 738)">
                <path d="M36 27c0-2.757-2.243-5-5-5s-5 2.243-5 5 2.243 5 5 5 5-2.243 5-5zm-5 2.5c-1.378 0-2.5-1.122-2.5-2.5s1.122-2.5 2.5-2.5c1.379 0 2.5 1.122 2.5 2.5s-1.121 2.5-2.5 2.5z"/>
                <g>
                    <path d="M7.023 0c2.135 0 3.934.597 5.204 1.727C13.37 2.744 14 4.117 14 5.59c0 .717-.15 1.414-.445 2.072-.306.682-.754 1.289-1.332 1.804-1.27 1.134-3.069 1.733-5.2 1.733-.79 0-1.616-.103-2.353-.291C3.972 11.605 3.027 12 2.038 12h-.992l.701-.683c.378-.368.615-.847.678-1.366C1.438 9.32.717 8.49.33 7.539c-.386-.95-.434-1.997-.14-3.026.353-1.235 1.181-2.36 2.332-3.17C3.772.466 5.329 0 7.023 0z" transform="translate(38 18)"/>
                </g>
                <path d="M8.477 53H25.55c.668 0 1.21-.54 1.21-1.205s-.542-1.204-1.21-1.204H8.477c-2.924 0-5.37-2.073-5.933-4.82h56.912c-.562 2.747-3.009 4.82-5.933 4.82H36.45c-.668 0-1.21.54-1.21 1.204 0 .666.542 1.205 1.21 1.205h17.074C58.197 53 62 49.217 62 44.568c0-.665-.542-1.204-1.21-1.204h-4.24V12.045c0-.665-.541-1.204-1.21-1.204h-8.598V1.205c0-.445-.246-.853-.64-1.063-.393-.21-.871-.186-1.242.06l-9.016 5.98V1.204C35.844.539 35.3 0 34.633 0H16.469c-.669 0-1.211.54-1.211 1.205v9.636H6.66c-.669 0-1.21.54-1.21 1.204v31.319H1.21c-.668 0-1.21.539-1.21 1.204C0 49.218 3.803 53 8.477 53zm28.578-9.636h-12.11V39.75c0-3.32 2.716-6.023 6.055-6.023 3.339 0 6.055 2.702 6.055 6.023v3.614zM44.32 3.455v9.953l-7.504-4.976 7.504-4.977zM17.68 2.41h15.742v12.046H17.68V2.409zM7.87 13.25h7.387v2.41c0 .664.542 1.204 1.21 1.204h18.165c.668 0 1.21-.54 1.21-1.205v-4.976l9.017 5.978c.372.247.85.27 1.243.06.393-.21.64-.618.64-1.062V13.25h7.386v30.114H39.477V39.75c0-4.65-3.803-8.432-8.477-8.432s-8.477 3.783-8.477 8.432v3.614H7.871V13.25z"/>
                <circle cx="31" cy="52" r="1"/>
            </g>
        </g>
    </g>
</svg>
