<svg xmlns="http://www.w3.org/2000/svg" width="32" height="28" viewBox="0 0 32 28">
    <g fill-rule="evenodd">
        <g fill-rule="nonzero">
            <g>
                <path d="M26.032 9h-2.064c-.535 0-.968.448-.968 1s.433 1 .968 1h2.064c.535 0 .968-.448.968-1s-.433-1-.968-1zM20.955 6h5.09c.528 0 .955-.448.955-1s-.427-1-.955-1h-5.09C20.427 4 20 4.448 20 5s.427 1 .955 1z" transform="translate(-732 -323) translate(732 323)"/>
                <path d="M29.438 14.428C30.872 14.3 32 13.088 32 11.614V2.825C32 1.267 30.738 0 29.187 0h-9.312c-1.55 0-2.813 1.267-2.813 2.825V6.53H5.376c-1.55 0-2.813 1.267-2.813 2.825v11.3c0 .33.058.648.162.942H1.687c-.93 0-1.687.76-1.687 1.695C0 25.888 2.103 28 4.688 28h22.625C29.896 28 32 25.888 32 23.291c0-.934-.757-1.695-1.688-1.695h-1.036c.104-.294.162-.611.162-.941v-6.227zm-10.5-11.603c0-.52.42-.942.937-.942h9.313c.516 0 .937.423.937.942v8.79c0 .519-.42.941-.938.941H20.5c-.176 0-.348.05-.497.143l-1.89 1.187.785-2.629c.026-.088.04-.179.04-.27V2.825zm8.375 23.292H4.688c-1.488 0-2.71-1.167-2.807-2.637H30.12c-.097 1.47-1.319 2.637-2.806 2.637zM8.938 14.502c0-.588.476-1.067 1.062-1.067.586 0 1.063.479 1.063 1.067 0 .589-.477 1.068-1.063 1.068s-1.063-.48-1.063-1.068zm-.5 4.018c0-.568.73-1.067 1.562-1.067.446 0 .876.14 1.18.384.143.115.383.356.383.683v3.076H8.437V18.52zm5 3.076V18.52c0-.814-.396-1.6-1.087-2.154l-.047-.036c.396-.503.633-1.138.633-1.828 0-1.627-1.317-2.95-2.937-2.95-1.62 0-2.938 1.323-2.938 2.95 0 .69.239 1.326.635 1.83-.696.54-1.135 1.32-1.135 2.188v3.076H5.375c-.517 0-.938-.422-.938-.941v-11.3c0-.52.421-.942.938-.942h11.688v2.435l-.746 2.497c-.227.758.032 1.558.658 2.038.338.259.736.39 1.136.39.343 0 .687-.096.995-.29l1.663-1.044h6.794v6.216c0 .519-.421.941-.938.941H13.437z" transform="translate(-732 -323) translate(732 323)"/>
            </g>
        </g>
    </g>
</svg>
