<svg xmlns="http://www.w3.org/2000/svg" width="47" height="47" viewBox="0 0 47 47">
    <path fill="#E3E3E3" fill-rule="nonzero" d="M36.556 20.889V0H10.444v10.444H0V47h20.889V36.556h5.222V47H47V20.889H36.556zM10.444 41.778H5.222v-5.222h5.222v5.222zm0-10.445H5.222v-5.222h5.222v5.222zm0-10.444H5.222v-5.222h5.222v5.222zM20.89 31.333h-5.222v-5.222h5.222v5.222zm0-10.444h-5.222v-5.222h5.222v5.222zm0-10.445h-5.222V5.222h5.222v5.222zm10.444 20.89h-5.222V26.11h5.222v5.222zm0-10.445h-5.222v-5.222h5.222v5.222zm0-10.445h-5.222V5.222h5.222v5.222zm10.445 31.334h-5.222v-5.222h5.222v5.222zm0-10.445h-5.222v-5.222h5.222v5.222z"/>
</svg>
