<svg xmlns="http://www.w3.org/2000/svg" width="37" height="43" viewBox="0 0 37 43">
    <g fill="#DC7373">
        <path d="M18.5 13c-4.687 0-8.5 3.589-8.5 8s3.813 8 8.5 8c4.687 0 8.5-3.589 8.5-8s-3.813-8-8.5-8zM13 20h11c.552 0 1 .448 1 1s-.448 1-1 1H13c-.552 0-1-.448-1-1s.448-1 1-1z"/>
        <path d="M36.957 11.667l-.001-.033c-.02-.413-.032-.85-.04-1.337-.035-2.37-1.94-4.332-4.336-4.464-4.995-.276-8.86-1.888-12.162-5.073L20.39.733c-1.077-.977-2.702-.977-3.78 0l-.027.027C13.28 3.945 9.416 5.557 4.42 5.833 2.025 5.965.12 7.926.085 10.298c-.008.483-.02.92-.04 1.336l-.002.077c-.097 5.042-.217 11.316 1.904 17.01 1.166 3.132 2.932 5.855 5.249 8.092 2.638 2.549 6.095 4.572 10.272 6.013.136.047.277.085.421.114.203.04.407.06.611.06.205 0 .41-.02.612-.06.144-.029.286-.067.422-.114 4.173-1.444 7.626-3.468 10.262-6.017 2.316-2.238 4.082-4.96 5.25-8.093 2.128-5.712 2.008-11.998 1.91-17.049zM18.5 32.217C12.529 32.217 7.67 27.41 7.67 21.5c0-5.91 4.858-10.716 10.829-10.716 5.97 0 10.828 4.807 10.828 10.716 0 5.909-4.858 10.716-10.828 10.716z"/>
    </g>
</svg>
