<?xml version="1.0" encoding="UTF-8"?>
<svg width="68px" height="68px" viewBox="0 0 68 68" version="1.1" xmlns="http://www.w3.org/2000/svg" xmlns:xlink="http://www.w3.org/1999/xlink">
    <title>sin sesion icon </title>
    <g id="Reuniones-&gt;-Crear-nueva" stroke="none" stroke-width="1" fill="none" fill-rule="evenodd">
        <g id="Tipo-de-reunion-final" transform="translate(-177.000000, -496.000000)" fill="#61ABB7" fill-rule="nonzero">
            <g id="sin-sesion-icon-" transform="translate(177.000000, 496.000000)">
                <path d="M2.98828125,13.9453125 L38.9804688,13.9453125 C40.6281406,13.9453125 41.96875,12.6048359 41.96875,10.9570312 L41.96875,2.98828125 C41.96875,1.34047656 40.6281406,0 38.9804688,0 L2.98828125,0 C1.34060937,0 0,1.34047656 0,2.98828125 L0,10.9570312 C0,12.6048359 1.34060937,13.9453125 2.98828125,13.9453125 Z M1.9921875,2.98828125 C1.9921875,2.43896875 2.43896875,1.9921875 2.98828125,1.9921875 L38.9804688,1.9921875 C39.5297812,1.9921875 39.9765625,2.43896875 39.9765625,2.98828125 L39.9765625,10.9570312 C39.9765625,11.5063437 39.5297812,11.953125 38.9804688,11.953125 L2.98828125,11.953125 C2.43896875,11.953125 1.9921875,11.5063437 1.9921875,10.9570312 L1.9921875,2.98828125 Z M6.97265625,9.9609375 C8.62032813,9.9609375 9.9609375,8.62046094 9.9609375,6.97265625 C9.9609375,5.32485156 8.62032813,3.984375 6.97265625,3.984375 C5.32498437,3.984375 3.984375,5.32485156 3.984375,6.97265625 C3.984375,8.62046094 5.32498438,9.9609375 6.97265625,9.9609375 Z M6.97265625,5.9765625 C7.52196875,5.9765625 7.96875,6.42334375 7.96875,6.97265625 C7.96875,7.52196875 7.52196875,7.96875 6.97265625,7.96875 C6.42334375,7.96875 5.9765625,7.52196875 5.9765625,6.97265625 C5.9765625,6.42334375 6.42334375,5.9765625 6.97265625,5.9765625 Z M68,53.0929922 L68,40.6051641 C68,38.9548359 66.6573984,37.6121016 65.0069375,37.6121016 C64.2402109,37.6121016 63.5401562,37.9021641 63.0101016,38.3780312 C62.4799141,37.9021641 61.7798594,37.6121016 61.0131328,37.6121016 C60.2464062,37.6121016 59.5463516,37.9021641 59.0162969,38.3780312 C58.4861094,37.9021641 57.7860547,37.6121016 57.0193281,37.6121016 C56.6683047,37.6121016 56.331625,37.6733281 56.0184531,37.7847578 L56.0184531,31.8625156 L57.0431016,31.8625156 C58.6907734,31.8625156 60.0313828,30.5220391 60.0313828,28.8742344 L60.0313828,20.9054844 C60.0313828,19.2576797 58.6907734,17.9172031 57.0431016,17.9172031 L48.9415391,17.9172031 C47.2938672,17.9172031 45.9532578,19.2576797 45.9532578,20.9054844 L45.9532578,28.8742344 C45.9532578,30.5220391 47.2938672,31.8625156 48.9415391,31.8625156 L50.0324609,31.8625156 L50.0324609,45.2780391 L46.4687031,41.5441484 C45.8784844,40.9257734 45.0486719,40.5844453 44.1954844,40.6038359 C43.3408359,40.6246875 42.5300156,41.0073203 41.9706094,41.6535859 C41.1827656,42.5638828 41.0062578,43.8550859 41.5211719,44.9433516 L49.4743828,61.7551563 C48.460625,62.404875 47.7867344,63.5406875 47.7867344,64.831625 L47.7867344,67.0039062 C47.7867344,67.5540156 48.2325859,68 48.7828281,68 C49.3330703,68 49.7789219,67.5540156 49.7789219,67.0039062 L49.7789219,64.8317578 C49.7789219,63.9162813 50.5236016,63.1716016 51.4390781,63.1716016 L64.3335781,63.1716016 C65.2490547,63.1716016 65.9937344,63.9162813 65.9937344,64.8317578 L65.9937344,67.0039062 C65.9937344,67.5540156 66.4395859,68 66.9898281,68 C67.5400703,68 67.9859219,67.5540156 67.9859219,67.0039062 L67.9859219,64.8317578 C67.9859219,63.4717578 67.2381875,62.28375 66.1326562,61.6551484 L67.9767578,53.3078828 C67.9920312,53.2372266 68,53.1652422 68,53.0929922 L68,53.0929922 Z M48.9414062,29.8704609 C48.3920937,29.8704609 47.9453125,29.4236797 47.9453125,28.8743672 L47.9453125,20.9056172 C47.9453125,20.3563047 48.3920937,19.9095234 48.9414062,19.9095234 L57.0429687,19.9095234 C57.5922812,19.9095234 58.0390625,20.3563047 58.0390625,20.9056172 L58.0390625,28.8743672 C58.0390625,29.4236797 57.5922812,29.8704609 57.0429687,29.8704609 L56.0183203,29.8704609 L56.0183203,27.8388281 C56.0183203,26.1885 54.6757188,24.8457656 53.0253906,24.8457656 C51.3749297,24.8457656 50.0323281,26.1883672 50.0323281,27.8388281 L50.0323281,29.8703281 L48.9414062,29.8703281 L48.9414062,29.8704609 Z M66.0078125,52.9842188 L64.1974453,61.1792813 L51.4389453,61.1792813 C51.4279219,61.1792813 51.4168984,61.1800781 51.405875,61.1800781 L43.3217109,44.0914922 C43.1442734,43.7162969 43.2051016,43.2712422 43.4767031,42.9574062 C43.8756719,42.4964141 44.6089297,42.4756953 45.0272891,42.9195547 L49.3921719,47.4926875 C49.8255391,47.9469062 50.4821641,48.0895469 51.0650781,47.8560625 C51.6478594,47.6225781 52.0245156,47.0660937 52.0245156,46.4381562 L52.0245156,27.8388281 C52.0245156,27.2869922 52.4735547,26.8379531 53.0253906,26.8379531 C53.5772266,26.8379531 54.0261328,27.2868594 54.0261328,27.8388281 L54.0261328,44.3010703 C54.0261328,44.8511797 54.4719844,45.2971641 55.0222266,45.2971641 C55.5724687,45.2971641 56.0183203,44.8511797 56.0183203,44.3010703 L56.0183203,40.6050312 C56.0183203,40.0531953 56.4673594,39.6041562 57.0191953,39.6041562 C57.5710313,39.6041562 58.0200703,40.0530625 58.0200703,40.6050312 L58.0200703,44.3010703 C58.0200703,44.8511797 58.4659219,45.2971641 59.0161641,45.2971641 C59.5664062,45.2971641 60.0122578,44.8511797 60.0122578,44.3010703 L60.0122578,40.6050312 C60.0122578,40.0531953 60.4611641,39.6041562 61.013,39.6041562 C61.5648359,39.6041562 62.013875,40.0530625 62.013875,40.6050312 L62.013875,44.3010703 C62.013875,44.8511797 62.4597266,45.2971641 63.0099688,45.2971641 C63.5602109,45.2971641 64.0060625,44.8511797 64.0060625,44.3010703 L64.0060625,40.6050312 C64.0060625,40.0531953 64.4549688,39.6041562 65.0068047,39.6041562 C65.5586406,39.6041562 66.0078125,40.0530625 66.0078125,40.6050312 L66.0078125,52.9842187 L66.0078125,52.9842188 Z M14.9414062,7.96875 L34.9960938,7.96875 C35.5463359,7.96875 35.9921875,7.52276562 35.9921875,6.97265625 C35.9921875,6.42254687 35.5463359,5.9765625 34.9960938,5.9765625 L14.9414062,5.9765625 C14.3911641,5.9765625 13.9453125,6.42254687 13.9453125,6.97265625 C13.9453125,7.52276562 14.3911641,7.96875 14.9414062,7.96875 Z M48.9414062,13.9453125 L57.0429687,13.9453125 C58.6906406,13.9453125 60.03125,12.6048359 60.03125,10.9570312 L60.03125,2.98828125 C60.03125,1.34047656 58.6906406,0 57.0429687,0 L48.9414062,0 C47.2937344,0 45.953125,1.34047656 45.953125,2.98828125 L45.953125,10.9570312 C45.953125,12.6048359 47.2937344,13.9453125 48.9414062,13.9453125 Z M47.9453125,2.98828125 C47.9453125,2.43896875 48.3920937,1.9921875 48.9414062,1.9921875 L57.0429687,1.9921875 C57.5922812,1.9921875 58.0390625,2.43896875 58.0390625,2.98828125 L58.0390625,10.9570312 C58.0390625,11.5063437 57.5922812,11.953125 57.0429687,11.953125 L48.9414062,11.953125 C48.3920937,11.953125 47.9453125,11.5063437 47.9453125,10.9570312 L47.9453125,2.98828125 Z M2.98828125,31.8626484 L38.9804688,31.8626484 C40.6281406,31.8626484 41.96875,30.5221719 41.96875,28.8743672 L41.96875,20.9056172 C41.96875,19.2578125 40.6281406,17.9173359 38.9804688,17.9173359 L11.1039219,17.9173359 C10.5536797,17.9173359 10.1078281,18.3633203 10.1078281,18.9134297 C10.1078281,19.4635391 10.5536797,19.9095234 11.1039219,19.9095234 L38.9804688,19.9095234 C39.5297812,19.9095234 39.9765625,20.3563047 39.9765625,20.9056172 L39.9765625,28.8743672 C39.9765625,29.4236797 39.5297812,29.8704609 38.9804688,29.8704609 L2.98828125,29.8704609 C2.43896875,29.8704609 1.9921875,29.4236797 1.9921875,28.8743672 L1.9921875,20.9056172 C1.9921875,20.3563047 2.43896875,19.9095234 2.98828125,19.9095234 L7.15434375,19.9095234 C7.70458594,19.9095234 8.1504375,19.4635391 8.1504375,18.9134297 C8.1504375,18.3633203 7.70458594,17.9173359 7.15434375,17.9173359 L2.98828125,17.9173359 C1.34060937,17.9173359 0,19.2578125 0,20.9056172 L0,28.8743672 C0,30.5220391 1.34060937,31.8626484 2.98828125,31.8626484 Z M3.984375,24.8899922 C3.984375,26.5377969 5.32498438,27.8782734 6.97265625,27.8782734 C8.62032813,27.8782734 9.9609375,26.5377969 9.9609375,24.8899922 C9.9609375,23.2421875 8.62032813,21.9017109 6.97265625,21.9017109 C5.32498437,21.9017109 3.984375,23.2421875 3.984375,24.8899922 Z M7.96875,24.8899922 C7.96875,25.4393047 7.52196875,25.8860859 6.97265625,25.8860859 C6.42334375,25.8860859 5.9765625,25.4393047 5.9765625,24.8899922 C5.9765625,24.3406797 6.42334375,23.8938984 6.97265625,23.8938984 C7.52196875,23.8938984 7.96875,24.3406797 7.96875,24.8899922 Z M38.9804688,54.0546875 L2.98828125,54.0546875 C1.34060937,54.0546875 0,55.3951641 0,57.0429687 L0,65.0117188 C0,66.6595234 1.34060937,68 2.98828125,68 L38.9804688,68 C40.6281406,68 41.96875,66.6595234 41.96875,65.0117188 L41.96875,57.0429687 C41.96875,55.3951641 40.6281406,54.0546875 38.9804688,54.0546875 Z M39.9765625,65.0117188 C39.9765625,65.5610313 39.5297812,66.0078125 38.9804688,66.0078125 L2.98828125,66.0078125 C2.43896875,66.0078125 1.9921875,65.5610313 1.9921875,65.0117188 L1.9921875,57.0429688 C1.9921875,56.4936562 2.43896875,56.046875 2.98828125,56.046875 L38.9804688,56.046875 C39.5297812,56.046875 39.9765625,56.4936562 39.9765625,57.0429688 L39.9765625,65.0117188 Z M6.97265625,58.0390625 C5.32498438,58.0390625 3.984375,59.3795391 3.984375,61.0273438 C3.984375,62.6751484 5.32498438,64.015625 6.97265625,64.015625 C8.62032813,64.015625 9.9609375,62.6751484 9.9609375,61.0273438 C9.9609375,59.3795391 8.62032813,58.0390625 6.97265625,58.0390625 Z M6.97265625,62.0234375 C6.42334375,62.0234375 5.9765625,61.5766562 5.9765625,61.0273437 C5.9765625,60.4780312 6.42334375,60.03125 6.97265625,60.03125 C7.52196875,60.03125 7.96875,60.4780312 7.96875,61.0273437 C7.96875,61.5766562 7.52196875,62.0234375 6.97265625,62.0234375 Z M14.9414062,41.8235859 C14.3911641,41.8235859 13.9453125,42.2695703 13.9453125,42.8196797 C13.9453125,43.3697891 14.3911641,43.8157734 14.9414062,43.8157734 L34.9960938,43.8157734 C35.5463359,43.8157734 35.9921875,43.3697891 35.9921875,42.8196797 C35.9921875,42.2695703 35.5463359,41.8235859 34.9960938,41.8235859 L14.9414062,41.8235859 Z M3.984375,42.8196797 C3.984375,44.4674844 5.32498438,45.8079609 6.97265625,45.8079609 C8.62032813,45.8079609 9.9609375,44.4674844 9.9609375,42.8196797 C9.9609375,41.171875 8.62032813,39.8313984 6.97265625,39.8313984 C5.32498437,39.8313984 3.984375,41.171875 3.984375,42.8196797 Z M7.96875,42.8196797 C7.96875,43.3689922 7.52196875,43.8157734 6.97265625,43.8157734 C6.42334375,43.8157734 5.9765625,43.3689922 5.9765625,42.8196797 C5.9765625,42.2703672 6.42334375,41.8235859 6.97265625,41.8235859 C7.52196875,41.8235859 7.96875,42.2703672 7.96875,42.8196797 Z M34.9960938,60.03125 L14.9414062,60.03125 C14.3911641,60.03125 13.9453125,60.4772344 13.9453125,61.0273437 C13.9453125,61.5774531 14.3911641,62.0234375 14.9414062,62.0234375 L34.9960938,62.0234375 C35.5463359,62.0234375 35.9921875,61.5774531 35.9921875,61.0273437 C35.9921875,60.4772344 35.5463359,60.03125 34.9960938,60.03125 Z M2.98828125,49.7923359 L38.9804688,49.7923359 C39.5307109,49.7923359 39.9765625,49.3463516 39.9765625,48.7962422 C39.9765625,48.2461328 39.5307109,47.8001484 38.9804688,47.8001484 L2.98828125,47.8001484 C2.43896875,47.8001484 1.9921875,47.3533672 1.9921875,46.8040547 L1.9921875,38.8353047 C1.9921875,38.2859922 2.43896875,37.8392109 2.98828125,37.8392109 L38.9804688,37.8392109 C39.5297812,37.8392109 39.9765625,38.2859922 39.9765625,38.8353047 C39.9765625,39.3854141 40.4224141,39.8313984 40.9726562,39.8313984 C41.5228984,39.8313984 41.96875,39.3854141 41.96875,38.8353047 C41.96875,37.1875 40.6281406,35.8470234 38.9804688,35.8470234 L2.98828125,35.8470234 C1.34060937,35.8470234 0,37.1875 0,38.8353047 L0,46.8040547 C0,48.4517266 1.34060937,49.7923359 2.98828125,49.7923359 Z M34.9960938,25.8860859 C35.5463359,25.8860859 35.9921875,25.4401016 35.9921875,24.8899922 C35.9921875,24.3398828 35.5463359,23.8938984 34.9960938,23.8938984 L14.9414062,23.8938984 C14.3911641,23.8938984 13.9453125,24.3398828 13.9453125,24.8899922 C13.9453125,25.4401016 14.3911641,25.8860859 14.9414062,25.8860859 L34.9960938,25.8860859 Z" id="Shape"></path>
            </g>
        </g>
    </g>
</svg>