<svg xmlns="http://www.w3.org/2000/svg" width="28" height="22" viewBox="0 0 28 22">
    <g fill="#B39A5B" fill-rule="nonzero">
        <path d="M16.524 14.93c1.692-.713 3.028-1.685 4.007-2.914C21.511 10.787 22 9.448 22 8s-.49-2.786-1.469-4.015c-.979-1.23-2.315-2.201-4.007-2.915C14.83.357 12.99 0 11 0 9.01 0 7.17.357 5.476 1.07c-1.692.714-3.028 1.685-4.007 2.915C.489 5.214 0 6.552 0 8c0 1.24.37 2.407 1.11 3.501.74 1.094 1.755 2.016 3.047 2.766-.104.25-.211.479-.32.687-.11.209-.24.409-.391.602l-.352.453c-.083.11-.219.263-.406.46a11.01 11.01 0 0 0-.36.391c0-.01-.02.013-.062.07-.042.058-.065.084-.07.079-.006-.006-.027.02-.063.078l-.055.086-.039.077a.335.335 0 0 0-.031.094.611.611 0 0 0-.008.102c0 .036.005.07.016.101.02.135.08.245.18.328a.488.488 0 0 0 .32.125h.047a13.1 13.1 0 0 0 1.343-.25 13.139 13.139 0 0 0 4.344-2c.938.167 1.854.25 2.75.25 1.99 0 3.831-.356 5.524-1.07z"/>
        <path d="M26.913 15.656C27.638 14.592 28 13.45 28 12.229c0-1.252-.383-2.423-1.148-3.512-.765-1.089-1.806-1.994-3.123-2.717a7.86 7.86 0 0 1 .352 2.32 7.815 7.815 0 0 1-1.025 3.878c-.684 1.22-1.664 2.3-2.939 3.236-1.184.855-2.53 1.511-4.04 1.97a16.21 16.21 0 0 1-4.73.686c-.306 0-.755-.02-1.347-.06 2.05 1.342 4.46 2.014 7.224 2.014.878 0 1.776-.081 2.694-.244a12.888 12.888 0 0 0 4.255 1.954c.368.092.806.173 1.317.244a.462.462 0 0 0 .336-.107.564.564 0 0 0 .2-.335c-.006-.061 0-.095.015-.1.015-.004.012-.038-.008-.098l-.03-.092-.039-.076a.731.731 0 0 0-.053-.084.657.657 0 0 0-.062-.076 1.935 1.935 0 0 1-.068-.077 10.653 10.653 0 0 0-.413-.45 6.047 6.047 0 0 1-.398-.45 46.42 46.42 0 0 0-.345-.443 3.86 3.86 0 0 1-.382-.587 8.398 8.398 0 0 1-.314-.672c1.265-.733 2.26-1.631 2.984-2.695z"/>
    </g>
</svg>
