<svg xmlns="http://www.w3.org/2000/svg" xmlns:xlink="http://www.w3.org/1999/xlink" width="24" height="26" viewBox="0 0 24 26">
    <defs>
        <rect id="b" width="102" height="34" x="1306" y="150" rx="3"/>
        <filter id="a" width="113.7%" height="141.2%" x="-6.9%" y="-14.7%" filterUnits="objectBoundingBox">
            <feOffset dy="2" in="SourceAlpha" result="shadowOffsetOuter1"/>
            <feGaussianBlur in="shadowOffsetOuter1" result="shadowBlurOuter1" stdDeviation="2"/>
            <feColorMatrix in="shadowBlurOuter1" values="0 0 0 0 0 0 0 0 0 0 0 0 0 0 0 0 0 0 0.0812937063 0"/>
        </filter>
    </defs>
    <g fill="none" fill-rule="evenodd">
        <path fill="#F2F4F7" d="M-1258-161H68V870h-1326z"/>
        <g transform="translate(-1372 -154)">
            <use fill="#000" filter="url(#a)" xlink:href="#b"/>
            <use fill="#FFF" xlink:href="#b"/>
        </g>
        <g fill="#7D2180" fill-rule="nonzero">
            <path d="M.865 8h2.27C3.613 8 4 7.776 4 7.5S3.613 7 3.135 7H.865C.387 7 0 7.224 0 7.5s.387.5.865.5zM1 14c.552 0 1-.387 1-.865v-2.27C2 10.387 1.552 10 1 10s-1 .387-1 .865v2.27C0 13.613.448 14 1 14zM1 18c.552 0 1-.387 1-.865v-2.27C2 14.387 1.552 14 1 14s-1 .387-1 .865v2.27C0 17.613.448 18 1 18zM2 23.135v-2.27C2 20.387 1.552 20 1 20s-1 .387-1 .865v2.27C0 23.613.448 24 1 24s1-.387 1-.865zM4.135 25h-2.27c-.478 0-.865.224-.865.5s.387.5.865.5h2.27c.478 0 .865-.224.865-.5s-.387-.5-.865-.5zM8.135 25h-2.27c-.477 0-.865.224-.865.5s.388.5.865.5h2.27c.477 0 .865-.224.865-.5s-.387-.5-.865-.5zM13.135 25h-2.27c-.478 0-.865.224-.865.5s.387.5.865.5h2.27c.478 0 .865-.224.865-.5s-.387-.5-.865-.5zM17.135 25h-2.27c-.477 0-.865.224-.865.5s.388.5.865.5h2.27c.477 0 .865-.224.865-.5s-.388-.5-.865-.5zM23.318 4.379c.377 0 .682-.327.682-.73V.73C24 .328 23.695 0 23.318 0h-2.727c-.377 0-.682.327-.682.73v.73H8.091V.73c0-.403-.305-.73-.682-.73H4.682C4.305 0 4 .327 4 .73v2.92c0 .402.305.729.682.729h.682v12.65h-.682c-.377 0-.682.327-.682.73v2.919c0 .403.305.73.682.73h2.727c.377 0 .682-.327.682-.73v-.73h8.637v1.322c0 .403.305.73.682.73.376 0 .681-.327.681-.73v-1.322h1.818v.73c0 .403.305.73.682.73h2.727c.377 0 .682-.327.682-.73v-2.92c0-.402-.305-.73-.682-.73h-.682V4.379h.682zm-2.045-2.92h1.363v1.46h-1.363V1.46zm-15.91 0h1.364v1.46H5.364V1.46zm1.364 18.49H5.364v-1.46h1.363v1.46zm15.91 0h-1.364v-1.46h1.363v1.46zm-1.364-2.92h-.682c-.377 0-.682.327-.682.73v.73H8.091v-.73c0-.403-.305-.73-.682-.73h-.682V4.379h.682c.377 0 .682-.327.682-.73v-.73h11.818v.73c0 .403.305.73.682.73h.682v12.65z"/>
            <path d="M18.265 5h-8.53C9.33 5 9 5.353 9 5.79v1.894c0 .436.33.79.735.79.406 0 .736-.354.736-.79V6.58h2.794v8.842h-.49c-.406 0-.736.353-.736.79 0 .435.33.789.736.789h2.45c.407 0 .736-.354.736-.79 0-.436-.33-.789-.736-.789h-.49V6.58h2.794v1.105c0 .436.33.79.736.79.406 0 .735-.354.735-.79V5.79c0-.436-.33-.789-.735-.789z"/>
        </g>
    </g>
</svg>
