<svg xmlns="http://www.w3.org/2000/svg" viewBox="0 0 15 21">
    <g fill="none" fill-rule="evenodd">
        <g fill="#FFF">
            <g>
                <g>
                    <path fill-rule="nonzero" d="M6.722 8H4.278C4.124 8 4 8.224 4 8.5s.124.5.278.5h2.444C6.876 9 7 8.776 7 8.5S6.876 8 6.722 8zM11.708 8H8.292C8.131 8 8 8.224 8 8.5s.13.5.292.5h3.416c.161 0 .292-.224.292-.5s-.13-.5-.292-.5zM11.705 6h-7.41C4.132 6 4 6.224 4 6.5s.132.5.295.5h7.41c.163 0 .295-.224.295-.5s-.132-.5-.295-.5zM4.278 5h4.443C8.875 5 9 4.776 9 4.5S8.875 4 8.721 4H4.278C4.125 4 4 4.224 4 4.5s.125.5.278.5z" transform="translate(-226 -358) translate(204 351) translate(22 7)"/>
                    <path fill-rule="nonzero" d="M14.998 4.954v-.01-.018c-.013-.683-.104-.964-.704-1.6l-.46-.487V1.08c0-.595-.5-1.079-1.112-1.079H1.112C.499 0 0 .484 0 1.08v14.128c0 .595.499 1.08 1.112 1.08h.568c.077.507.527.899 1.07.899h3.865v1.198c0 .339.296.615.66.615h2.12c.363 0 .658-.276.658-.615v-1.198h3.866c.596 0 1.081-.472 1.081-1.053V5.212c0-.093 0-.178-.002-.258zM13.345 3.15l.526.555c.397.42.51.593.541.958h-1.914c-.28 0-.506-.22-.506-.491l.002-2.17c.303.027.393.124.682.438l.165.176.482.51.022.024zm1.08 12.983c0 .272-.227.492-.506.492h-3.866v-.44h.226c.8-.038 1.097-.424 1.204-.65.194-.41.092-.944-.265-1.39l-1.696-2.121c-.272-.367-.678-.586-1.115-.6-.468-.015-.924.2-1.253.59-.002.001-.004.003-.005.006L5.45 14.146c-.357.447-.46.98-.266 1.39.107.227.405.612 1.204.65h.226v.44H2.75c-.278 0-.505-.22-.505-.492V11.87c0-.155-.129-.28-.288-.28-.158 0-.287.125-.287.28v3.858h-.557c-.296 0-.537-.233-.537-.52V1.08c0-.286.241-.52.537-.52h11.61c.295 0 .536.234.536.52v1.15l-.153-.164c-.434-.47-.623-.632-1.397-.633h-.002H2.75c-.595 0-1.08.472-1.08 1.053v8.099c0 .155.129.28.288.28.158 0 .287-.125.287-.28v-8.1c0-.27.227-.49.505-.49h8.67l-.003 2.178c0 .58.486 1.052 1.082 1.052h1.927v10.91z" transform="translate(-226 -358) translate(204 351) translate(22 7)"/>
                    <path stroke="#FFF" d="M10.376 16.077c-.208 0-.377.175-.377.391v3.457c0 .035-.047.075-.108.075H7.11c-.067 0-.11-.044-.11-.075v-3.457c0-.216-.169-.391-.377-.391h-.646c-.34-.018-.77-.112-.92-.451-.132-.297-.029-.752.257-1.132l2.223-2.96c.282-.352.658-.547 1.033-.533.345.012.657.195.88.517l.008.012 2.228 2.964c.286.38.389.834.258 1.131-.15.34-.582.434-.922.452h-.646z" transform="translate(-226 -358) translate(204 351) translate(22 7)"/>
                </g>
            </g>
        </g>
    </g>
</svg>
