<svg xmlns="http://www.w3.org/2000/svg" width="79" height="69" viewBox="0 0 79 69">
    <g fill-rule="evenodd">
        <g fill-rule="nonzero">
            <g transform="translate(-528 -386) translate(528 386)">
                <circle cx="39.5" cy="48.5" r="2.5"/>
                <circle cx="20.5" cy="48.5" r="2.5"/>
                <path d="M58.133 28.087c-3.224 2.746-7.365 4.469-11.944 4.469-4.627 0-8.812-1.756-12.05-4.556h-8.124c-3.239 2.8-7.423 4.556-12.05 4.556-4.579 0-8.873-1.723-12.098-4.47C.81 28.295 0 29.173 0 30.279v36.444C0 67.982 1.03 69 2.302 69h55.396C58.97 69 60 67.981 60 66.722V30.278c0-1.106-.81-1.984-1.867-2.191zm-18.85 27.246c-3.807 0-6.904-3.065-6.904-6.833 0-.802.166-1.562.424-2.278H27.35c.258.716.424 1.476.424 2.278 0 3.768-3.098 6.833-6.905 6.833-3.808 0-6.906-3.065-6.906-6.833 0-3.768 3.098-6.833 6.906-6.833h18.414c3.808 0 6.905 3.065 6.905 6.833 0 3.768-3.097 6.833-6.905 6.833z"/>
                <circle cx="14.5" cy="13.5" r="2.5"/>
                <path d="M14.077 28C21.767 28 28 21.732 28 14S21.767 0 14.077 0C6.388 0 0 6.268 0 14s6.388 14 14.077 14zm0-21c3.839 0 6.962 3.14 6.962 7s-3.123 7-6.962 7c-3.838 0-6.961-3.14-6.961-7s3.123-7 6.961-7z"/>
                <circle cx="46.5" cy="13.5" r="2.5"/>
                <path d="M46 0c-7.732 0-14 6.268-14 14s6.268 14 14 14 14-6.268 14-14S53.732 0 46 0zm0 21c-3.86 0-7-3.14-7-7s3.14-7 7-7 7 3.14 7 7-3.14 7-7 7zM76.692 28h-4.769c-1.275 0-2.308 1.019-2.308 2.278v3.147L65 35.703v25.594l4.615 2.278v3.147c0 1.26 1.033 2.278 2.308 2.278h4.77C77.967 69 79 67.981 79 66.722V30.278C79 29.018 77.968 28 76.692 28z"/>
            </g>
        </g>
    </g>
</svg>
